<svg width="960" height="720" viewBox="0 0 960 720" fill="none" xmlns="http://www.w3.org/2000/svg" role="img" aria-labelledby="title desc">
  <title id="title">Modern office building with high speed network lines</title>
  <desc id="desc">A premium business campus illustration with blue glass architecture and green network streams.</desc>
  <defs>
    <linearGradient id="sky" x1="168" y1="36" x2="811" y2="693" gradientUnits="userSpaceOnUse">
      <stop stop-color="#EFF6FF"/>
      <stop offset="0.54" stop-color="#FFFFFF"/>
      <stop offset="1" stop-color="#ECFDF5"/>
    </linearGradient>
    <linearGradient id="glass" x1="337" y1="168" x2="727" y2="589" gradientUnits="userSpaceOnUse">
      <stop stop-color="#DBEAFE"/>
      <stop offset="0.42" stop-color="#F8FAFC"/>
      <stop offset="1" stop-color="#93C5FD"/>
    </linearGradient>
    <linearGradient id="sideGlass" x1="711" y1="210" x2="886" y2="578" gradientUnits="userSpaceOnUse">
      <stop stop-color="#BFDBFE"/>
      <stop offset="1" stop-color="#F8FAFC"/>
    </linearGradient>
    <linearGradient id="greenLine" x1="154" y1="546" x2="906" y2="384" gradientUnits="userSpaceOnUse">
      <stop stop-color="#16A34A" stop-opacity="0"/>
      <stop offset="0.2" stop-color="#16A34A"/>
      <stop offset="0.72" stop-color="#60A5FA"/>
      <stop offset="1" stop-color="#2563EB" stop-opacity="0"/>
    </linearGradient>
    <linearGradient id="ground" x1="72" y1="590" x2="900" y2="590" gradientUnits="userSpaceOnUse">
      <stop stop-color="#F8FAFC"/>
      <stop offset="0.5" stop-color="#E2E8F0"/>
      <stop offset="1" stop-color="#F8FAFC"/>
    </linearGradient>
    <filter id="softShadow" x="148" y="124" width="772" height="516" filterUnits="userSpaceOnUse" color-interpolation-filters="sRGB">
      <feFlood flood-opacity="0" result="BackgroundImageFix"/>
      <feColorMatrix in="SourceAlpha" type="matrix" values="0 0 0 0 0 0 0 0 0 0 0 0 0 0 0 0 0 0 127 0" result="hardAlpha"/>
      <feOffset dy="20"/>
      <feGaussianBlur stdDeviation="28"/>
      <feComposite in2="hardAlpha" operator="out"/>
      <feColorMatrix type="matrix" values="0 0 0 0 0.059 0 0 0 0 0.091 0 0 0 0 0.165 0 0 0 0.14 0"/>
      <feBlend mode="normal" in2="BackgroundImageFix" result="effect1_dropShadow_1_2"/>
      <feBlend mode="normal" in="SourceGraphic" in2="effect1_dropShadow_1_2" result="shape"/>
    </filter>
  </defs>

  <rect width="960" height="720" rx="8" fill="url(#sky)"/>
  <path d="M0 554C125 513 214 532 314 559C429 591 523 595 649 556C763 520 851 519 960 548V720H0V554Z" fill="#F8FAFC"/>
  <path d="M71 631C260 602 514 597 889 624" stroke="url(#ground)" stroke-width="38" stroke-linecap="round"/>
  <path d="M74 630C258 601 512 596 887 623" stroke="#CBD5E1" stroke-width="1"/>

  <g filter="url(#softShadow)">
    <path d="M305 238L592 137L800 240V579H305V238Z" fill="url(#glass)" stroke="#CBD5E1"/>
    <path d="M592 137L800 240L890 209L676 109L592 137Z" fill="#EFF6FF" stroke="#CBD5E1"/>
    <path d="M800 240L890 209V541L800 579V240Z" fill="url(#sideGlass)" stroke="#CBD5E1"/>

    <path d="M347 262L575 187V555H347V262Z" fill="white" fill-opacity="0.28"/>
    <path d="M607 192L766 264V552H607V192Z" fill="white" fill-opacity="0.24"/>
    <path d="M821 253L869 235V520L821 539V253Z" fill="white" fill-opacity="0.26"/>

    <g stroke="#94A3B8" stroke-opacity="0.58">
      <path d="M386 249V557"/>
      <path d="M429 235V557"/>
      <path d="M472 221V557"/>
      <path d="M515 207V557"/>
      <path d="M558 193V557"/>
      <path d="M628 202V557"/>
      <path d="M666 219V557"/>
      <path d="M704 236V557"/>
      <path d="M742 253V557"/>
      <path d="M833 248V532"/>
      <path d="M852 241V524"/>
      <path d="M347 306H574"/>
      <path d="M347 364H574"/>
      <path d="M347 422H574"/>
      <path d="M347 480H574"/>
      <path d="M607 288H766"/>
      <path d="M607 347H766"/>
      <path d="M607 406H766"/>
      <path d="M607 465H766"/>
      <path d="M821 312L869 293"/>
      <path d="M821 374L869 355"/>
      <path d="M821 436L869 417"/>
      <path d="M821 498L869 479"/>
    </g>
  </g>

  <path d="M73 547C245 484 444 486 620 452C759 425 855 389 934 324" stroke="url(#greenLine)" stroke-width="11" stroke-linecap="round"/>
  <path d="M84 572C266 510 457 514 636 485C765 465 860 431 928 371" stroke="url(#greenLine)" stroke-width="6" stroke-linecap="round"/>
  <path d="M114 514C290 458 460 456 632 416C754 388 841 344 907 286" stroke="url(#greenLine)" stroke-width="4" stroke-linecap="round"/>

  <g fill="#16A34A">
    <circle cx="309" cy="494" r="5"/>
    <circle cx="536" cy="458" r="5"/>
    <circle cx="718" cy="421" r="5"/>
  </g>
  <g fill="#2563EB">
    <circle cx="409" cy="510" r="4"/>
    <circle cx="644" cy="482" r="4"/>
    <circle cx="820" cy="409" r="4"/>
  </g>

  <path d="M178 582H268L302 631H144L178 582Z" fill="#E2E8F0"/>
  <path d="M196 545H250V584H196V545Z" fill="#F8FAFC" stroke="#CBD5E1"/>
  <path d="M204 554H242V578H204V554Z" fill="#BFDBFE"/>
  <path d="M110 602H900" stroke="#94A3B8" stroke-opacity="0.45"/>
</svg>
